OpenSim_Sub22_baseline_IK_filtered.mot
version=1
nRows=31
nColumns=24
inDegrees=yes
endheader
time	pelvis_tilt	pelvis_list	pelvis_rotation	pelvis_tx	pelvis_ty	pelvis_tz	hip_flexion_r	hip_adduction_r	hip_rotation_r	knee_angle_r	ankle_angle_r	subtalar_angle_r	mtp_angle_r	hip_flexion_l	hip_adduction_l	hip_rotation_l	knee_angle_l	ankle_angle_l	subtalar_angle_l	mtp_angle_l	lumbar_extension	lumbar_bending	lumbar_rotation
0	-7.96790945	5.42639263	-2.28953250	1.04554624	0.92813665	-0.51696356	15.29421122	-6.35277491	0.78603462	-67.03233486	4.62486502	-0.00000533	-0.00000016	24.04976844	6.09044551	0.07899591	-18.09073155	10.41133776	-0.00000159	0.00000005	-3.45889954	-8.07654753	-0.13774172
0.01000000	-8.10254297	5.39788974	-2.21067752	1.04479278	0.92927394	-0.51816795	16.98632324	-6.44736209	0.53052921	-68.10558703	5.17848883	-0.00000568	-0.00000018	23.30527736	6.20361230	0.24370648	-17.77592813	10.84361160	-0.00000154	0.00000004	-3.40638848	-8.02859664	-0.13699098
0.02000000	-8.23560819	5.35861443	-2.11712942	1.04402557	0.93041341	-0.51938728	18.68120349	-6.53223965	0.26693472	-69.09552836	5.76441173	-0.00000604	-0.00000020	22.54817284	6.30959391	0.42717091	-17.45770524	11.26989605	-0.00000149	0.00000003	-3.35815116	-7.96593707	-0.13596626
0.03000000	-8.36287427	5.30357256	-2.00171005	1.04324908	0.93153583	-0.52060813	20.34872246	-6.60154768	-0.00500030	-69.92901152	6.38912673	-0.00000641	-0.00000021	21.78263812	6.40271050	0.63758106	-17.13956475	11.68051581	-0.00000144	0.00000001	-3.31864580	-7.88194892	-0.13453881
0.04000000	-8.48002307	5.22951144	-1.85769178	1.04246247	0.93262429	-0.52182157	21.96402637	-6.65242648	-0.28601417	-70.54412526	7.05631229	-0.00000679	-0.00000023	21.01070147	6.47943021	0.88072259	-16.82514728	12.07077642	-0.00000140	0.00000001	-3.29299678	-7.77227686	-0.13261923
0.05000000	-8.58328899	5.13490179	-1.67943582	1.04166075	0.93366278	-0.52302149	23.50783730	-6.68468406	-0.57665641	-70.89310848	7.76310409	-0.00000717	-0.00000025	20.23316008	6.53807162	1.15965812	-16.51788714	12.44087092	-0.00000137	-0.00000000	-3.28612718	-7.63487167	-0.13016008
0.06000000	-8.66984774	5.01970380	-1.46309332	1.04083662	0.93463570	-0.52420280	24.96613058	-6.70011860	-0.87670623	-70.94243840	8.49866488	-0.00000755	-0.00000027	19.45018318	6.57822083	1.47523911	-16.22066055	12.79524405	-0.00000134	-0.00000001	-3.30208609	-7.46969888	-0.12715203
0.07000000	-8.73805883	4.88515951	-1.20708566	1.03998274	0.93552805	-0.52536025	26.32945484	-6.70194081	-1.18497293	-70.67121075	9.24532574	-0.00000791	-0.00000028	18.66183673	6.60023180	1.82693332	-15.93578192	13.14111250	-0.00000132	-0.00000001	-3.34346027	-7.27847673	-0.12362048
0.08000000	-8.78735923	4.73368346	-0.91187570	1.03909413	0.93632658	-0.52648830	27.59172848	-6.69448547	-1.49955315	-70.06871333	9.98126698	-0.00000825	-0.00000030	17.86819792	6.60502376	2.21374331	-15.66510103	13.48611936	-0.00000130	-0.00000001	-3.41124607	-7.06454927	-0.11962347
0.09000000	-8.81791798	4.56882279	-0.57936790	1.03817032	0.93702117	-0.52758114	28.74881068	-6.68311780	-1.81825219	-69.13177880	10.68358476	-0.00000856	-0.00000031	17.06893410	6.59409678	2.63454727	-15.40949304	13.83633934	-0.00000128	-0.00000002	-3.50513153	-6.83279697	-0.11524954
0.10000000	-8.83044650	4.39522997	-0.21249591	1.03721631	0.93760556	-0.52863263	29.79757401	-6.67426984	-2.13916114	-67.86231321	11.33022026	-0.00000884	-0.00000032	16.26284891	6.56962857	3.08769634	-15.16782142	14.19554130	-0.00000126	-0.00000002	-3.62370425	-6.58951421	-0.11061503
0.11000000	-8.82624666	4.21857571	0.18501130	1.03624220	0.93807672	-0.52963640	30.73576347	-6.67535288	-2.46136021	-66.26584419	11.90090206	-0.00000908	-0.00000033	15.44792379	6.53457719	3.57053914	-14.93650760	14.56519562	-0.00000125	-0.00000002	-3.76446575	-6.34223416	-0.10586092
0.12000000	-8.80741380	4.04533522	0.60873367	1.03526261	0.93843284	-0.53058570	31.56235411	-6.69413590	-2.78535386	-64.35152773	12.37917549	-0.00000928	-0.00000034	14.62192160	6.49267628	4.07878040	-14.71006053	14.94451611	-0.00000124	-0.00000003	-3.92361956	-6.09944702	-0.10114819
0.13000000	-8.77711078	3.88248483	1.05354337	1.03429650	0.93867114	-0.53147292	32.27801608	-6.73788721	-3.11310044	-62.13243188	12.75469640	-0.00000945	-0.00000034	13.78335497	6.44830469	4.60565832	-14.48234775	15.33077529	-0.00000124	-0.00000003	-4.09572474	-5.87022623	-0.09665188
0.14000000	-8.73964568	3.73718860	1.51378987	1.03336551	0.93878641	-0.53228936	32.88542397	-6.81286000	-3.44778807	-59.62516244	13.02304004	-0.00000958	-0.00000035	12.93238914	6.40634084	5.14190751	-14.24834262	15.72026076	-0.00000124	-0.00000004	-4.27376219	-5.66385349	-0.09255417
0.15000000	-8.69997875	3.61642905	1.98377281	1.03249103	0.93877103	-0.53302558	33.38913141	-6.92402720	-3.79376072	-56.84966628	13.18366045	-0.00000969	-0.00000035	12.07093645	6.37196025	5.67690614	-14.00533179	16.10937235	-0.00000124	-0.00000004	-4.45007093	-5.48941522	-0.08903508
0.16000000	-8.66302715	3.52627533	2.45807094	1.03169172	0.93861633	-0.53367157	33.79533046	-7.07448957	-4.15699822	-53.82973553	13.23827333	-0.00000976	-0.00000036	11.20223217	6.34996265	6.20028141	-13.75328994	16.49520838	-0.00000124	-0.00000005	-4.61744065	-5.35500983	-0.08625592
0.17000000	-8.63350267	3.47088376	2.93144805	1.03098248	0.93831407	-0.53421627	34.11209266	-7.26448160	-4.54552708	-50.59373619	13.19045321	-0.00000981	-0.00000036	10.33090387	6.34366095	6.70280614	-13.49508324	16.87559902	-0.00000125	-0.00000006	-4.76934106	-5.26667930	-0.08433949
0.18000000	-8.61587834	3.45213000	3.39866846	1.03037420	0.93785753	-0.53464722	34.34954448	-7.49098011	-4.96886810	-47.17553194	13.04649757	-0.00000983	-0.00000036	9.46304986	6.35437374	7.17628659	-13.23640302	17.24874193	-0.00000125	-0.00000006	-4.89988278	-5.22800946	-0.08336302
0.19000000	-8.61376537	3.47008913	3.85475154	1.02987363	0.93724309	-0.53495175	34.51923155	-7.74846580	-5.43683049	-43.61562933	12.81690210	-0.00000980	-0.00000036	8.60547521	6.38191771	7.61345714	-12.98527236	17.61263115	-0.00000125	-0.00000006	-5.00452085	-5.24050934	-0.08336343
0.20000000	-8.62913403	3.52348717	4.29562407	1.02948320	0.93647175	-0.53511807	34.63309797	-8.02981018	-5.95800407	-39.96183832	12.51724597	-0.00000974	-0.00000035	7.76472314	6.42511121	8.00852662	-12.75157292	17.96484468	-0.00000124	-0.00000006	-5.08098741	-5.30394470	-0.08434140
0.21000000	-8.66218228	3.60963408	4.71868955	1.02920180	0.93554998	-0.53513475	34.70276785	-8.32647107	-6.53778108	-36.26881797	12.16810965	-0.00000960	-0.00000034	6.94664936	6.48158182	8.35801146	-12.54646218	18.30296821	-0.00000122	-0.00000006	-5.12937466	-5.41633092	-0.08626099
0.22000000	-8.71205027	3.72397830	5.12311882	1.02902658	0.93448952	-0.53499016	34.73936096	-8.62833760	-7.17625583	-32.59655143	11.79420135	-0.00000938	-0.00000033	6.15666239	6.54712206	8.66153220	-12.38153239	18.62524994	-0.00000118	-0.00000006	-5.15110078	-5.57363242	-0.08904649
0.23000000	-8.77780241	3.85977102	5.50977885	1.02895452	0.93330579	-0.53467320	34.75364284	-8.92374260	-7.86583429	-29.00828638	11.42269875	-0.00000905	-0.00000032	5.40039655	6.61529471	8.92216622	-12.26839074	18.93100412	-0.00000111	-0.00000006	-5.14755470	-5.76944554	-0.09257963
0.24000000	-8.85890715	4.00834319	5.88066532	1.02898304	0.93201635	-0.53417475	34.75603558	-9.19992372	-8.58816953	-25.56856629	11.08072495	-0.00000859	-0.00000030	4.68408092	6.67777168	9.14578570	-12.21871188	19.22023147	-0.00000102	-0.00000005	-5.11940841	-5.99511691	-0.09670314
0.25000000	-8.95501141	4.15974482	6.23818717	1.02911047	0.93064068	-0.53349005	34.75592825	-9.44392924	-9.31230727	-22.34105617	10.79213502	-0.00000800	-0.00000027	4.01413802	6.72509557	9.33999523	-12.24423845	19.49261977	-0.00000091	-0.00000005	-5.06681419	-6.24009115	-0.10122664
0.26000000	-9.06536127	4.30343370	6.58470927	1.02933717	0.92920047	-0.53262114	34.76025632	-9.64381713	-9.99652450	-19.38550782	10.57448634	-0.00000730	-0.00000024	3.39625374	6.74754278	9.51362428	-12.35650983	19.74670569	-0.00000077	-0.00000004	-4.98997355	-6.49234385	-0.10593318
0.27000000	-9.18838315	4.42935885	6.92224808	1.02966778	0.92771943	-0.53157813	34.77235786	-9.79017084	-10.59400516	-16.75463755	10.43703818	-0.00000650	-0.00000020	2.83425024	6.73631608	9.67639191	-12.56579252	19.97903464	-0.00000060	-0.00000003	-4.88942075	-6.73945884	-0.11059805
0.28000000	-9.32132539	4.52927010	7.25228261	1.03011309	0.92622267	-0.53037899	34.79161188	-9.87758126	-11.06105973	-14.49208680	10.37968037	-0.00000566	-0.00000016	2.32897054	6.68480724	9.83822315	-12.87964697	20.18321844	-0.00000041	-0.00000002	-4.76631226	-6.97011977	-0.11501503
0.29000000	-9.45984290	4.59741860	7.57567886	1.03068954	0.92473598	-0.52904814	34.81370383	-9.90517504	-11.36583995	-12.63130788	10.39224816	-0.00000481	-0.00000013	1.87792280	6.58919446	10.00816577	-13.30288679	20.34980055	-0.00000021	-0.00000001	-4.62303601	-7.17499292	-0.11901093
0.30000000	-9.59813005	4.63051951	7.89247243	1.03141706	0.92328440	-0.52761307	34.83178746	-9.87588178	-11.49495148	-11.19453554	10.45423051	-0.00000403	-0.00000009	1.47629995	6.44834477	10.19304987	-13.83899513	20.46699422	0.00000000	-0.00000000	-4.46334233	-7.34690848	-0.12244864
